<?xml version="1.0" encoding="utf-8"?>
<!-- Generator: Adobe Illustrator 19.2.1, SVG Export Plug-In . SVG Version: 6.00 Build 0)  -->
<svg version="1.1" xmlns="http://www.w3.org/2000/svg" xmlns:xlink="http://www.w3.org/1999/xlink" x="0px" y="0px"
	 viewBox="0 0 1024 768" style="enable-background:new 0 0 1024 768;" xml:space="preserve">
<style type="text/css">
	.st0{fill:#085ABD;}
	.st1{fill:#DAF47A;stroke:#000000;stroke-width:3;stroke-miterlimit:10;}
	.st2{fill:#E8F9B7;stroke:#000000;stroke-width:3;stroke-miterlimit:10;}
	.st3{fill:#333333;stroke:#000000;stroke-width:3;stroke-miterlimit:10;}
	.st4{fill:#FFFFFF;fill-opacity:0.4;stroke:#000000;stroke-width:3;stroke-miterlimit:10;}
	.st5{fill:none;stroke:#000000;stroke-width:3;stroke-linecap:round;stroke-miterlimit:10;}
	.st6{display:none;fill:#085ABD;}
	.st7{fill:#FFFFFF;}
	.st8{fill:#A01D31;}
	.st9{fill:#A97B14;}
	.st10{fill:#AFBC00;}
	.st11{fill:#D7DB31;}
	.st12{fill:#E0E0E0;fill-opacity:0.4;}
</style>
<g id="Ebene_1">
</g>
<g id="Ebene_2">
	<rect class="st6" width="1024" height="768"/>
	<g>
		<path class="st7" d="M690.9,384c0.6,69.8-11.2,134.7-35.1,197.1c-35.4,4.2-59.8,6.8-94.8,8v-54.3c20-2.5,26.9-3,46.5-5.2
			c15.9-45.1,24.1-92.5,23.6-145.6c0.5-53.1-7.7-100.5-23.6-145.6c-19.6-2.3-26.4-2.8-46.4-5.3v-54.3c35,1.3,59.4,3.8,94.8,8
			c23.9,62.4,35.6,127.3,35,197.1"/>
		<path class="st7" d="M333.1,384c-0.5-69.8,11-134.7,35-197.1c35.4-4.2,60.9-6.7,94.9-8v54.3c-19,2.5-27,3-46.6,5.3
			c-15.9,45.1-24,92.5-23.5,145.6c-0.5,53.1,7.6,100.5,23.5,145.6c19.6,2.3,27.4,2.8,46.5,5.2l0,54.3c-34.1-1.3-59.4-3.8-94.8-8
			C344,518.7,332.5,453.8,333.1,384"/>
	</g>
	<path class="st8" d="M465,473.1v0.7c0,25.7,20.8,46.5,46.5,46.5h0c25.7,0,46.5-20.8,46.5-46.5v-0.7H465z"/>
	<ellipse class="st9" cx="511.5" cy="473.1" rx="46.5" ry="8.2"/>
	<g>
		<path class="st10" d="M465,442v21.6c0,4.4,20.9,8,46.5,8c25.6,0,46.5-3.6,46.5-8V442H465z"/>
		<ellipse class="st11" cx="511.5" cy="442.2" rx="46.5" ry="8.2"/>
		<path class="st10" d="M465,411.1V433c0,4.4,20.9,8,46.5,8c25.6,0,46.5-3.6,46.5-8v-21.9H465z"/>
		<ellipse class="st11" cx="511.5" cy="411.1" rx="46.5" ry="8"/>
		<path class="st10" d="M465,381.1v20.6c0,4.4,20.9,8,46.5,8c25.6,0,46.5-3.6,46.5-8v-20.6H465z"/>
		<ellipse class="st11" cx="511.5" cy="381.1" rx="46.5" ry="8"/>
	</g>
	<path class="st8" d="M558,372v-79c0-25.7-20.8-46.5-46.5-46.5h0c-25.7,0-46.5,20.8-46.5,46.5v78.8c0,0.1,0,0.1,0,0.2
		c0,4.4,20.8,8,46.5,8C537.2,380,558,376.5,558,372C558,372,558,372,558,372z"/>
	<path class="st12" d="M749.5,321.3c-25.5-3.7-58.8-5.9-95.3-5.9c-53.7,0-100.5,4.8-125.6,12c1.2,34.2,23.3,78.4,61.2,116.4
		c28.6,28.6,60.7,48.1,89.5,56.6c13.6,4,26.3-8.7,22.3-22.3c-8.4-28.7-28-60.9-56.6-89.5c-26.8-26.8-56.7-45.7-84.1-54.9
		c25.2,3.5,57.7,5.6,93.3,5.6c36.5,0,69.8-2.2,95.3-5.9C766.2,331,766.2,323.7,749.5,321.3z"/>
	<path class="st12" d="M369.7,315.4c-36.5,0-69.8,2.2-95.3,5.9c-16.7,2.4-16.7,9.7,0,12.1c25.5,3.7,58.8,5.9,95.3,5.9
		c35.5,0,68.1-2.1,93.3-5.6c-27.3,9.2-57.3,28.1-84.1,54.9c-28.6,28.6-48.1,60.7-56.6,89.5c-4,13.6,8.7,26.3,22.3,22.3
		c28.7-8.4,60.9-28,89.5-56.6c37.9-37.9,60-82.2,61.2-116.4C470.2,320.2,423.4,315.4,369.7,315.4z"/>
</g>
</svg>
